# xmcd CD database file
#
# Track frame offsets:
#	150
#	13202
#	45452
#	73771
#	82797
#	94229
#	121278
#	168760
#	200918
#	234264
#
# Disc length: 3554 seconds
#
# Revision: 0
# Processed by: cddbd v1.5.2PL0 Copyright (c) Steve Scherf et al.
# Submitted via: CDex 1.70beta2
#
DISCID=7b0de00a
DTITLE=Khaled Ben Yahia - Pl[A]In Sud
DYEAR=2006
DGENRE=Jazz
TTITLE0=P.S.
TTITLE1=Les Cheminées
TTITLE2=Kayum*
TTITLE3=1976-Introduction
TTITLE4=1976-Trio
TTITLE5=1976-Mawel Et Thème
TTITLE6=Hydra
TTITLE7=Zaouia
TTITLE8=T.G.M.
TTITLE9=Océane
EXTD=YEAR: 2006
EXTT0=
EXTT1=
EXTT2=
EXTT3=
EXTT4=
EXTT5=
EXTT6=
EXTT7=
EXTT8=
EXTT9=
PLAYORDER=
